PathFileType	4	(X/Y/Z)	C:\Git\research_data\Projects\torsion_deformities_healthy_kinematics\simulations\TD01\pre\dynamic_13_l\marker_experimental.trc
DataRate	CameraRate	NumFrames	NumMarkers	Units	OrigDataRate	OrigDataStartFrame	OrigNumFrames
200	200	5	30	mm	200	449	513
Frame#	Time	C7			T10			CLAV			STRN			RBAK			LASI			RASI			SACR			RT1			RT2			RT3			RKNE			RS1			RS2			RS3			RANK			RHEE			RTOE			LT1			LT2			LT3			LKNE			LS1			LS2			LS3			LANK			LHEE			LTOE			RHJC			LHJC		
		X1	Y1	Z1	X2	Y2	Z2	X3	Y3	Z3	X4	Y4	Z4	X5	Y5	Z5	X6	Y6	Z6	X7	Y7	Z7	X8	Y8	Z8	X9	Y9	Z9	X10	Y10	Z10	X11	Y11	Z11	X12	Y12	Z12	X13	Y13	Z13	X14	Y14	Z14	X15	Y15	Z15	X16	Y16	Z16	X17	Y17	Z17	X18	Y18	Z18	X19	Y19	Z19	X20	Y20	Z20	X21	Y21	Z21	X22	Y22	Z22	X23	Y23	Z23	X24	Y24	Z24	X25	Y25	Z25	X26	Y26	Z26	X27	Y27	Z27	X28	Y28	Z28	X29	Y29	Z29	X30	Y30	Z30	

449	2.240000	2049.312500	1259.557129	188.703705	2008.870361	1073.146240	184.509705	2168.909424	1211.985107	183.327682	2216.196045	1079.649902	175.312485	2019.306885	1183.920288	282.024231	2147.292725	871.965820	77.361107	2150.502441	875.742798	280.018555	1985.447754	909.817200	182.823975	2178.229736	697.226013	332.959991	2168.160645	632.146118	343.386536	2217.361572	644.049561	327.183990	2243.633789	502.080231	328.723236	2157.514648	389.619385	343.794647	2116.926270	338.366547	330.517975	2164.896240	323.772400	334.153046	2061.828369	151.954575	298.789948	2021.713745	154.188629	239.570816	2179.714355	83.785492	298.827423	2099.020508	672.954956	45.620296	2070.633057	612.923767	56.161835	2121.946777	613.617126	65.943634	2087.736328	465.479828	95.726570	2023.057617	331.363190	75.938042	2002.365845	269.708679	88.197144	2053.754883	275.378326	94.354858	1978.630981	97.128395	126.118095	1936.370117	92.288910	165.388275	2123.881348	65.370033	155.059402	2085.794308	815.951128	254.987572	2083.444728	813.186300	106.638021	
450	2.245000	2055.489258	1259.315796	188.693832	2014.900024	1072.941772	184.580658	2175.063232	1211.615967	183.359924	2222.187744	1079.202271	175.289825	2025.360718	1183.678833	281.941528	2152.800293	871.579468	77.448456	2156.413086	875.304626	280.157898	1991.261963	909.705444	183.278412	2184.512695	697.245056	333.303436	2174.731689	632.105408	343.483337	2223.892090	644.254456	327.353729	2250.508789	502.456177	328.473999	2167.121094	387.926819	343.790253	2128.156982	335.477936	330.577484	2176.497803	322.326294	334.506805	2078.800781	147.244522	299.628662	2038.924927	148.164276	240.216858	2198.696045	82.525139	300.624023	2103.011719	672.739319	45.794670	2074.013672	612.979736	56.249844	2125.305664	613.217041	66.140915	2089.490234	465.323364	95.596489	2024.292969	331.575104	75.914291	2003.355469	270.019775	88.176407	2054.693848	275.472748	94.412300	1978.761719	97.472313	126.172356	1936.558960	92.837318	165.438873	2123.881104	65.310616	155.044327	2091.546738	815.622001	255.229960	2088.902171	812.895182	106.846510	
451	2.250000	2061.675537	1259.027344	188.689499	2020.936523	1072.690186	184.669220	2181.229248	1211.194946	183.403900	2228.188965	1078.700439	175.282471	2031.420044	1183.388306	281.865814	2158.308594	871.166138	77.546448	2162.333496	874.793457	280.310974	1997.088013	909.548584	183.759430	2190.656006	697.093323	333.650330	2181.101807	631.899414	343.501373	2230.254150	644.272400	327.543549	2257.174072	502.668518	328.170288	2176.637695	386.129150	343.791595	2139.371094	332.496307	330.670044	2188.051514	320.847107	334.858612	2095.906494	142.621307	300.522644	2056.312012	142.236847	240.927719	2217.699219	81.376320	302.436340	2106.984131	672.519714	45.970032	2077.388916	613.031982	56.354378	2128.656494	612.821411	66.330307	2091.300781	465.177948	95.479362	2025.646240	331.801178	75.910782	2004.458740	270.341583	88.149422	2055.739014	275.588989	94.521126	1978.899780	97.838150	126.234520	1936.760742	93.419601	165.492859	2123.883545	65.254478	155.027832	2097.306264	815.227346	255.475393	2094.360120	812.572224	107.056016	
452	2.255000	2067.871826	1258.693115	188.691666	2026.980591	1072.392456	184.775848	2187.407715	1210.723877	183.460541	2234.199951	1078.146606	175.291626	2037.485474	1183.049805	281.798157	2163.819580	870.728149	77.652901	2168.266602	874.212402	280.474976	2002.928101	909.347839	184.266403	2196.649170	696.765259	333.997864	2187.256836	631.523926	343.440613	2236.434326	644.095581	327.752411	2263.631348	502.718384	327.812195	2186.065186	384.239685	343.798248	2150.566650	329.441833	330.794403	2199.550049	319.349243	335.207672	2113.134766	138.116226	301.469940	2073.856934	136.433777	241.706238	2236.713135	80.374855	304.248047	2110.938477	672.296631	46.145920	2080.757324	613.080139	56.473248	2131.998291	612.428467	66.513313	2093.167236	465.042542	95.375580	2027.093872	332.042694	75.928162	2005.650146	270.675751	88.124275	2056.872070	275.725098	94.668282	1979.044312	98.226730	126.306679	1936.973755	94.034729	165.556122	2123.890381	65.202957	155.008865	2103.076189	814.769757	255.721807	2099.821163	812.219436	107.264898	
453	2.260000	2074.078125	1258.314331	188.701279	2033.033203	1072.049683	184.900925	2193.598633	1210.204712	183.530807	2240.221680	1077.543335	175.318390	2043.557251	1182.664673	281.739563	2169.335693	870.267517	77.765724	2174.216797	873.565063	280.647156	2008.784668	909.104370	184.798584	2202.484863	696.256042	334.342590	2193.185547	630.975586	343.302582	2242.422119	643.716675	327.977020	2269.884033	502.608521	327.400543	2195.403564	382.274628	343.807739	2161.738525	326.338287	330.945648	2210.983643	317.848541	335.553497	2130.474121	133.760956	302.467712	2091.539062	130.782227	242.554871	2255.725342	79.558907	306.041107	2114.876709	672.070557	46.321976	2084.119141	613.124084	56.604061	2135.331543	612.036804	66.691628	2095.088623	464.915833	95.284760	2028.609741	332.300995	75.966301	2006.901733	271.024567	88.108932	2058.070801	275.878845	94.839371	1979.193726	98.638878	126.390404	1937.196045	94.681580	165.634033	2123.902832	65.157013	154.986465	2108.861108	814.252127	255.967746	2105.288468	811.838545	107.472151	
